<svg xmlns="http://www.w3.org/2000/svg" xmlns:xlink="http://www.w3.org/1999/xlink" width="40" zoomAndPan="magnify" viewBox="0 0 30 30.000001" height="40" preserveAspectRatio="xMidYMid meet" version="1.0"><defs><clipPath id="d985a51dea"><path d="M 7 0.902344 L 21 0.902344 L 21 22 L 7 22 Z M 7 0.902344 " clip-rule="nonzero"/></clipPath><clipPath id="29e69e54f9"><path d="M 14 14 L 27.707031 14 L 27.707031 28.480469 L 14 28.480469 Z M 14 14 " clip-rule="nonzero"/></clipPath><clipPath id="725b10c52f"><path d="M 2.304688 7 L 15 7 L 15 28.480469 L 2.304688 28.480469 Z M 2.304688 7 " clip-rule="nonzero"/></clipPath><clipPath id="4d3c781fe4"><path d="M 2.304688 27 L 12 27 L 12 28.480469 L 2.304688 28.480469 Z M 2.304688 27 " clip-rule="nonzero"/></clipPath><clipPath id="6832b46a88"><path d="M 16 0.902344 L 20 0.902344 L 20 2 L 16 2 Z M 16 0.902344 " clip-rule="nonzero"/></clipPath><clipPath id="66d2b6911a"><path d="M 7 0.902344 L 15 0.902344 L 15 14 L 7 14 Z M 7 0.902344 " clip-rule="nonzero"/></clipPath><clipPath id="c16c8b5505"><path d="M 11 0.902344 L 18 0.902344 L 18 3 L 11 3 Z M 11 0.902344 " clip-rule="nonzero"/></clipPath></defs><g clip-path="url(#d985a51dea)"><path fill="#2488ff" d="M 20.777344 1.835938 L 20.777344 20.535156 C 20.777344 21.046875 20.363281 21.46875 19.851562 21.46875 L 8.773438 21.46875 C 8.265625 21.46875 7.847656 21.046875 7.847656 20.535156 L 7.847656 1.835938 C 7.847656 1.324219 8.265625 0.902344 8.773438 0.902344 L 19.851562 0.902344 C 20.363281 0.902344 20.777344 1.324219 20.777344 1.835938 " fill-opacity="1" fill-rule="nonzero"/></g><path fill="#ff5023" d="M 11.082031 7.914062 C 11.082031 6.101562 12.527344 4.640625 14.3125 4.640625 C 15.441406 4.640625 16.433594 5.226562 17.015625 6.113281 C 17.351562 6.628906 17.542969 7.246094 17.542969 7.914062 C 17.542969 9.722656 16.101562 11.183594 14.3125 11.183594 C 12.527344 11.183594 11.082031 9.722656 11.082031 7.914062 " fill-opacity="1" fill-rule="nonzero"/><g clip-path="url(#29e69e54f9)"><path fill="#ff5023" d="M 14.773438 21.46875 C 14.773438 17.855469 17.667969 14.925781 21.238281 14.925781 C 24.808594 14.925781 27.703125 17.855469 27.703125 21.46875 C 27.703125 25.082031 24.808594 28.015625 21.238281 28.015625 C 17.667969 28.015625 14.773438 25.082031 14.773438 21.46875 " fill-opacity="1" fill-rule="nonzero"/></g><path fill="#ffda44" d="M 16.160156 21.46875 C 16.160156 18.628906 18.433594 16.328125 21.238281 16.328125 C 24.042969 16.328125 26.316406 18.628906 26.316406 21.46875 C 26.316406 24.308594 24.042969 26.613281 21.238281 26.613281 C 18.433594 26.613281 16.160156 24.308594 16.160156 21.46875 " fill-opacity="1" fill-rule="nonzero"/><g clip-path="url(#725b10c52f)"><path fill="#ffdaaa" d="M 11.082031 19.601562 L 11.082031 21.003906 L 11.542969 21.9375 L 11.542969 24.273438 L 11.082031 25.210938 L 10.15625 26.144531 L 9.695312 27.546875 L 9.695312 28.015625 L 3.695312 28.015625 L 3.695312 27.546875 L 2.769531 23.339844 L 2.347656 17.308594 C 2.324219 16.972656 2.386719 16.636719 2.539062 16.332031 L 6.371094 8.660156 C 6.722656 8.1875 7.265625 7.914062 7.847656 7.914062 L 7.847656 16.605469 C 8.050781 16.511719 8.238281 16.375 8.394531 16.203125 L 11.953125 13 C 12.5 12.507812 13.332031 12.53125 13.851562 13.054688 L 13.972656 13.175781 C 14.4375 13.648438 14.511719 14.390625 14.148438 14.949219 L 11.082031 19.601562 " fill-opacity="1" fill-rule="nonzero"/></g><g clip-path="url(#4d3c781fe4)"><path fill="#6a563d" d="M 11.082031 28.480469 L 2.308594 28.480469 L 2.308594 27.546875 L 11.082031 27.546875 L 11.082031 28.480469 " fill-opacity="1" fill-rule="nonzero"/></g><path fill="#ffffff" d="M 22.160156 23.808594 L 21.699219 23.808594 L 21.699219 21.9375 L 22.160156 21.9375 C 22.671875 21.9375 23.085938 22.355469 23.085938 22.871094 C 23.085938 23.386719 22.671875 23.808594 22.160156 23.808594 Z M 20.316406 21.003906 C 19.804688 21.003906 19.390625 20.582031 19.390625 20.066406 C 19.390625 19.550781 19.804688 19.132812 20.316406 19.132812 L 20.777344 19.132812 L 20.777344 21.003906 Z M 22.160156 21.003906 L 21.699219 21.003906 L 21.699219 19.132812 L 22.160156 19.132812 C 22.671875 19.132812 23.085938 19.550781 23.085938 20.066406 L 24.007812 20.066406 C 24.007812 19.035156 23.179688 18.199219 22.160156 18.199219 L 21.699219 18.199219 L 21.699219 17.261719 L 20.777344 17.261719 L 20.777344 18.199219 L 20.316406 18.199219 C 19.296875 18.199219 18.46875 19.035156 18.46875 20.066406 C 18.46875 21.097656 19.296875 21.9375 20.316406 21.9375 L 20.777344 21.9375 L 20.777344 23.808594 L 20.316406 23.808594 C 19.804688 23.808594 19.390625 23.386719 19.390625 22.871094 L 18.46875 22.871094 C 18.46875 23.902344 19.296875 24.742188 20.316406 24.742188 L 20.777344 24.742188 L 20.777344 25.675781 L 21.699219 25.675781 L 21.699219 24.742188 L 22.160156 24.742188 C 23.179688 24.742188 24.007812 23.902344 24.007812 22.871094 C 24.007812 21.839844 23.179688 21.003906 22.160156 21.003906 " fill-opacity="1" fill-rule="nonzero"/><path fill="#ffffff" d="M 14.3125 8.847656 C 14.195312 8.847656 14.078125 8.800781 13.988281 8.710938 L 13.0625 7.777344 L 13.714844 7.113281 L 14.3125 7.71875 L 16.757812 5.246094 L 17.410156 5.90625 L 14.640625 8.710938 C 14.550781 8.800781 14.433594 8.847656 14.3125 8.847656 " fill-opacity="1" fill-rule="nonzero"/><g clip-path="url(#6832b46a88)"><path fill="#57a4ff" d="M 19.851562 0.902344 L 16.957031 0.902344 C 17.015625 1 17.050781 1.117188 17.066406 1.238281 C 17.960938 1.019531 18.894531 0.902344 19.851562 0.902344 " fill-opacity="1" fill-rule="nonzero"/></g><g clip-path="url(#66d2b6911a)"><path fill="#57a4ff" d="M 11.542969 1.367188 C 11.542969 1.199219 11.589844 1.035156 11.667969 0.902344 L 8.773438 0.902344 C 8.265625 0.902344 7.847656 1.324219 7.847656 1.835938 L 7.847656 13.054688 C 7.847656 8.402344 10.464844 4.34375 14.277344 2.304688 L 12.464844 2.304688 C 11.957031 2.304688 11.542969 1.882812 11.542969 1.367188 " fill-opacity="1" fill-rule="nonzero"/></g><path fill="#ff9811" d="M 14.277344 2.304688 L 16.160156 2.304688 C 16.414062 2.304688 16.644531 2.199219 16.8125 2.027344 C 16.980469 1.859375 17.082031 1.625 17.082031 1.367188 C 17.082031 1.324219 17.074219 1.28125 17.066406 1.238281 C 16.085938 1.476562 15.148438 1.835938 14.277344 2.304688 " fill-opacity="1" fill-rule="nonzero"/><g clip-path="url(#c16c8b5505)"><path fill="#ffa32b" d="M 16.957031 0.902344 L 11.667969 0.902344 C 11.589844 1.035156 11.542969 1.199219 11.542969 1.367188 C 11.542969 1.882812 11.957031 2.304688 12.464844 2.304688 L 14.277344 2.304688 C 15.148438 1.835938 16.085938 1.476562 17.066406 1.238281 C 17.050781 1.117188 17.015625 1 16.957031 0.902344 " fill-opacity="1" fill-rule="nonzero"/></g></svg>